<mxfile host="Electron" modified="2023-09-11T16:06:12.966Z" agent="Mozilla/5.0 (Macintosh; Intel Mac OS X 10_15_7) AppleWebKit/537.36 (KHTML, like Gecko) draw.io/21.6.8 Chrome/114.0.5735.289 Electron/25.5.0 Safari/537.36" etag="-1wfHcWHWbyWVDbJTpOK" version="21.6.8" type="device" pages="2">
  <diagram id="C5RBs43oDa-KdzZeNtuy" name="class-diagram">
    <mxGraphModel dx="1575" dy="736" grid="1" gridSize="10" guides="1" tooltips="1" connect="1" arrows="1" fold="1" page="1" pageScale="1" pageWidth="827" pageHeight="1169" math="0" shadow="0">
      <root>
        <mxCell id="WIyWlLk6GJQsqaUBKTNV-0" />
        <mxCell id="WIyWlLk6GJQsqaUBKTNV-1" parent="WIyWlLk6GJQsqaUBKTNV-0" />
        <mxCell id="bV7OirwBVrbGyDBHQMyq-15" value="Element" style="swimlane;fontStyle=0;childLayout=stackLayout;horizontal=1;startSize=26;fillColor=none;horizontalStack=0;resizeParent=1;resizeParentMax=0;resizeLast=0;collapsible=1;marginBottom=0;whiteSpace=wrap;html=1;" parent="WIyWlLk6GJQsqaUBKTNV-1" vertex="1">
          <mxGeometry x="160" y="680" width="240" height="156" as="geometry" />
        </mxCell>
        <mxCell id="bV7OirwBVrbGyDBHQMyq-17" value="+ id: string" style="text;strokeColor=none;fillColor=none;align=left;verticalAlign=top;spacingLeft=4;spacingRight=4;overflow=hidden;rotatable=0;points=[[0,0.5],[1,0.5]];portConstraint=eastwest;whiteSpace=wrap;html=1;" parent="bV7OirwBVrbGyDBHQMyq-15" vertex="1">
          <mxGeometry y="26" width="240" height="26" as="geometry" />
        </mxCell>
        <mxCell id="AIKmgEOzpHdvbfiahd1B-17" value="+ type: string" style="text;strokeColor=none;fillColor=none;align=left;verticalAlign=top;spacingLeft=4;spacingRight=4;overflow=hidden;rotatable=0;points=[[0,0.5],[1,0.5]];portConstraint=eastwest;whiteSpace=wrap;html=1;" vertex="1" parent="bV7OirwBVrbGyDBHQMyq-15">
          <mxGeometry y="52" width="240" height="26" as="geometry" />
        </mxCell>
        <mxCell id="bV7OirwBVrbGyDBHQMyq-34" value="+ toUpdateProps: Record&amp;lt;string, boolean&amp;gt;" style="text;strokeColor=none;fillColor=none;align=left;verticalAlign=top;spacingLeft=4;spacingRight=4;overflow=hidden;rotatable=0;points=[[0,0.5],[1,0.5]];portConstraint=eastwest;whiteSpace=wrap;html=1;" parent="bV7OirwBVrbGyDBHQMyq-15" vertex="1">
          <mxGeometry y="78" width="240" height="26" as="geometry" />
        </mxCell>
        <mxCell id="igNct7924kJgtWa7V87G-12" value="+ events: Events" style="text;strokeColor=none;fillColor=none;align=left;verticalAlign=top;spacingLeft=4;spacingRight=4;overflow=hidden;rotatable=0;points=[[0,0.5],[1,0.5]];portConstraint=eastwest;whiteSpace=wrap;html=1;" vertex="1" parent="bV7OirwBVrbGyDBHQMyq-15">
          <mxGeometry y="104" width="240" height="26" as="geometry" />
        </mxCell>
        <mxCell id="bV7OirwBVrbGyDBHQMyq-16" value="+ renderer: Renderer" style="text;strokeColor=none;fillColor=none;align=left;verticalAlign=top;spacingLeft=4;spacingRight=4;overflow=hidden;rotatable=0;points=[[0,0.5],[1,0.5]];portConstraint=eastwest;whiteSpace=wrap;html=1;" parent="bV7OirwBVrbGyDBHQMyq-15" vertex="1">
          <mxGeometry y="130" width="240" height="26" as="geometry" />
        </mxCell>
        <mxCell id="bV7OirwBVrbGyDBHQMyq-41" style="edgeStyle=orthogonalEdgeStyle;rounded=0;orthogonalLoop=1;jettySize=auto;html=1;endArrow=block;endFill=0;" parent="WIyWlLk6GJQsqaUBKTNV-1" source="bV7OirwBVrbGyDBHQMyq-19" target="bV7OirwBVrbGyDBHQMyq-15" edge="1">
          <mxGeometry relative="1" as="geometry" />
        </mxCell>
        <mxCell id="bV7OirwBVrbGyDBHQMyq-19" value="Shape" style="swimlane;fontStyle=0;childLayout=stackLayout;horizontal=1;startSize=26;fillColor=none;horizontalStack=0;resizeParent=1;resizeParentMax=0;resizeLast=0;collapsible=1;marginBottom=0;whiteSpace=wrap;html=1;" parent="WIyWlLk6GJQsqaUBKTNV-1" vertex="1">
          <mxGeometry x="160" y="1110" width="160" height="52" as="geometry" />
        </mxCell>
        <mxCell id="bV7OirwBVrbGyDBHQMyq-42" style="edgeStyle=orthogonalEdgeStyle;rounded=0;orthogonalLoop=1;jettySize=auto;html=1;endArrow=block;endFill=0;" parent="WIyWlLk6GJQsqaUBKTNV-1" source="bV7OirwBVrbGyDBHQMyq-23" target="bV7OirwBVrbGyDBHQMyq-15" edge="1">
          <mxGeometry relative="1" as="geometry" />
        </mxCell>
        <mxCell id="bV7OirwBVrbGyDBHQMyq-23" value="Fill" style="swimlane;fontStyle=0;childLayout=stackLayout;horizontal=1;startSize=26;fillColor=none;horizontalStack=0;resizeParent=1;resizeParentMax=0;resizeLast=0;collapsible=1;marginBottom=0;whiteSpace=wrap;html=1;" parent="WIyWlLk6GJQsqaUBKTNV-1" vertex="1">
          <mxGeometry x="360" y="1110" width="160" height="52" as="geometry" />
        </mxCell>
        <mxCell id="bV7OirwBVrbGyDBHQMyq-26" value="Renderer" style="swimlane;fontStyle=0;childLayout=stackLayout;horizontal=1;startSize=26;fillColor=none;horizontalStack=0;resizeParent=1;resizeParentMax=0;resizeLast=0;collapsible=1;marginBottom=0;whiteSpace=wrap;html=1;" parent="WIyWlLk6GJQsqaUBKTNV-1" vertex="1">
          <mxGeometry x="480" y="797" width="160" height="52" as="geometry" />
        </mxCell>
        <mxCell id="bV7OirwBVrbGyDBHQMyq-27" style="edgeStyle=orthogonalEdgeStyle;rounded=0;orthogonalLoop=1;jettySize=auto;html=1;entryX=0;entryY=0.5;entryDx=0;entryDy=0;" parent="WIyWlLk6GJQsqaUBKTNV-1" source="bV7OirwBVrbGyDBHQMyq-16" target="bV7OirwBVrbGyDBHQMyq-26" edge="1">
          <mxGeometry relative="1" as="geometry" />
        </mxCell>
        <mxCell id="bV7OirwBVrbGyDBHQMyq-39" style="edgeStyle=orthogonalEdgeStyle;rounded=0;orthogonalLoop=1;jettySize=auto;html=1;endArrow=block;endFill=0;" parent="WIyWlLk6GJQsqaUBKTNV-1" source="bV7OirwBVrbGyDBHQMyq-28" target="bV7OirwBVrbGyDBHQMyq-23" edge="1">
          <mxGeometry relative="1" as="geometry" />
        </mxCell>
        <mxCell id="bV7OirwBVrbGyDBHQMyq-28" value="GradientFill" style="swimlane;fontStyle=0;childLayout=stackLayout;horizontal=1;startSize=26;fillColor=none;horizontalStack=0;resizeParent=1;resizeParentMax=0;resizeLast=0;collapsible=1;marginBottom=0;whiteSpace=wrap;html=1;" parent="WIyWlLk6GJQsqaUBKTNV-1" vertex="1">
          <mxGeometry x="360" y="1210" width="160" height="52" as="geometry" />
        </mxCell>
        <mxCell id="bV7OirwBVrbGyDBHQMyq-40" style="edgeStyle=orthogonalEdgeStyle;rounded=0;orthogonalLoop=1;jettySize=auto;html=1;endArrow=block;endFill=0;" parent="WIyWlLk6GJQsqaUBKTNV-1" source="bV7OirwBVrbGyDBHQMyq-29" target="bV7OirwBVrbGyDBHQMyq-23" edge="1">
          <mxGeometry relative="1" as="geometry">
            <Array as="points">
              <mxPoint x="640" y="1190" />
              <mxPoint x="440" y="1190" />
            </Array>
          </mxGeometry>
        </mxCell>
        <mxCell id="bV7OirwBVrbGyDBHQMyq-29" value="SolidFill" style="swimlane;fontStyle=0;childLayout=stackLayout;horizontal=1;startSize=26;fillColor=none;horizontalStack=0;resizeParent=1;resizeParentMax=0;resizeLast=0;collapsible=1;marginBottom=0;whiteSpace=wrap;html=1;" parent="WIyWlLk6GJQsqaUBKTNV-1" vertex="1">
          <mxGeometry x="560" y="1210" width="160" height="52" as="geometry" />
        </mxCell>
        <mxCell id="bV7OirwBVrbGyDBHQMyq-33" style="edgeStyle=orthogonalEdgeStyle;rounded=0;orthogonalLoop=1;jettySize=auto;html=1;entryX=0.5;entryY=1;entryDx=0;entryDy=0;endArrow=block;endFill=0;" parent="WIyWlLk6GJQsqaUBKTNV-1" source="bV7OirwBVrbGyDBHQMyq-32" target="bV7OirwBVrbGyDBHQMyq-19" edge="1">
          <mxGeometry relative="1" as="geometry" />
        </mxCell>
        <mxCell id="igNct7924kJgtWa7V87G-16" style="edgeStyle=orthogonalEdgeStyle;rounded=0;orthogonalLoop=1;jettySize=auto;html=1;" edge="1" parent="WIyWlLk6GJQsqaUBKTNV-1" source="bV7OirwBVrbGyDBHQMyq-32" target="igNct7924kJgtWa7V87G-15">
          <mxGeometry relative="1" as="geometry" />
        </mxCell>
        <mxCell id="bV7OirwBVrbGyDBHQMyq-32" value="Path" style="swimlane;fontStyle=0;childLayout=stackLayout;horizontal=1;startSize=26;fillColor=none;horizontalStack=0;resizeParent=1;resizeParentMax=0;resizeLast=0;collapsible=1;marginBottom=0;whiteSpace=wrap;html=1;" parent="WIyWlLk6GJQsqaUBKTNV-1" vertex="1">
          <mxGeometry x="160" y="1210" width="160" height="52" as="geometry" />
        </mxCell>
        <mxCell id="AIKmgEOzpHdvbfiahd1B-5" style="edgeStyle=orthogonalEdgeStyle;rounded=0;orthogonalLoop=1;jettySize=auto;html=1;endArrow=block;endFill=0;" edge="1" parent="WIyWlLk6GJQsqaUBKTNV-1" source="AIKmgEOzpHdvbfiahd1B-0" target="bV7OirwBVrbGyDBHQMyq-32">
          <mxGeometry relative="1" as="geometry" />
        </mxCell>
        <mxCell id="AIKmgEOzpHdvbfiahd1B-0" value="Ellipse" style="swimlane;fontStyle=0;childLayout=stackLayout;horizontal=1;startSize=26;fillColor=none;horizontalStack=0;resizeParent=1;resizeParentMax=0;resizeLast=0;collapsible=1;marginBottom=0;whiteSpace=wrap;html=1;" vertex="1" parent="WIyWlLk6GJQsqaUBKTNV-1">
          <mxGeometry x="-80" y="1170" width="160" height="52" as="geometry" />
        </mxCell>
        <mxCell id="AIKmgEOzpHdvbfiahd1B-8" style="edgeStyle=orthogonalEdgeStyle;rounded=0;orthogonalLoop=1;jettySize=auto;html=1;entryX=0;entryY=0.5;entryDx=0;entryDy=0;endArrow=block;endFill=0;" edge="1" parent="WIyWlLk6GJQsqaUBKTNV-1" source="AIKmgEOzpHdvbfiahd1B-1" target="bV7OirwBVrbGyDBHQMyq-32">
          <mxGeometry relative="1" as="geometry" />
        </mxCell>
        <mxCell id="AIKmgEOzpHdvbfiahd1B-1" value="Line" style="swimlane;fontStyle=0;childLayout=stackLayout;horizontal=1;startSize=26;fillColor=none;horizontalStack=0;resizeParent=1;resizeParentMax=0;resizeLast=0;collapsible=1;marginBottom=0;whiteSpace=wrap;html=1;" vertex="1" parent="WIyWlLk6GJQsqaUBKTNV-1">
          <mxGeometry x="-80" y="1350" width="160" height="52" as="geometry" />
        </mxCell>
        <mxCell id="AIKmgEOzpHdvbfiahd1B-7" style="edgeStyle=orthogonalEdgeStyle;rounded=0;orthogonalLoop=1;jettySize=auto;html=1;entryX=0;entryY=0.5;entryDx=0;entryDy=0;endArrow=block;endFill=0;" edge="1" parent="WIyWlLk6GJQsqaUBKTNV-1" source="AIKmgEOzpHdvbfiahd1B-2" target="bV7OirwBVrbGyDBHQMyq-32">
          <mxGeometry relative="1" as="geometry" />
        </mxCell>
        <mxCell id="AIKmgEOzpHdvbfiahd1B-2" value="Polygon" style="swimlane;fontStyle=0;childLayout=stackLayout;horizontal=1;startSize=26;fillColor=none;horizontalStack=0;resizeParent=1;resizeParentMax=0;resizeLast=0;collapsible=1;marginBottom=0;whiteSpace=wrap;html=1;" vertex="1" parent="WIyWlLk6GJQsqaUBKTNV-1">
          <mxGeometry x="-80" y="1260" width="160" height="52" as="geometry" />
        </mxCell>
        <mxCell id="AIKmgEOzpHdvbfiahd1B-9" style="edgeStyle=orthogonalEdgeStyle;rounded=0;orthogonalLoop=1;jettySize=auto;html=1;entryX=0;entryY=0.5;entryDx=0;entryDy=0;endArrow=block;endFill=0;" edge="1" parent="WIyWlLk6GJQsqaUBKTNV-1" source="AIKmgEOzpHdvbfiahd1B-3" target="bV7OirwBVrbGyDBHQMyq-32">
          <mxGeometry relative="1" as="geometry" />
        </mxCell>
        <mxCell id="AIKmgEOzpHdvbfiahd1B-3" value="Rectangle" style="swimlane;fontStyle=0;childLayout=stackLayout;horizontal=1;startSize=26;fillColor=none;horizontalStack=0;resizeParent=1;resizeParentMax=0;resizeLast=0;collapsible=1;marginBottom=0;whiteSpace=wrap;html=1;" vertex="1" parent="WIyWlLk6GJQsqaUBKTNV-1">
          <mxGeometry x="-80" y="1440" width="160" height="52" as="geometry" />
        </mxCell>
        <mxCell id="AIKmgEOzpHdvbfiahd1B-10" style="edgeStyle=orthogonalEdgeStyle;rounded=0;orthogonalLoop=1;jettySize=auto;html=1;entryX=0;entryY=0.5;entryDx=0;entryDy=0;endArrow=block;endFill=0;" edge="1" parent="WIyWlLk6GJQsqaUBKTNV-1" source="AIKmgEOzpHdvbfiahd1B-4" target="bV7OirwBVrbGyDBHQMyq-32">
          <mxGeometry relative="1" as="geometry" />
        </mxCell>
        <mxCell id="AIKmgEOzpHdvbfiahd1B-4" value="Star" style="swimlane;fontStyle=0;childLayout=stackLayout;horizontal=1;startSize=26;fillColor=none;horizontalStack=0;resizeParent=1;resizeParentMax=0;resizeLast=0;collapsible=1;marginBottom=0;whiteSpace=wrap;html=1;" vertex="1" parent="WIyWlLk6GJQsqaUBKTNV-1">
          <mxGeometry x="-80" y="1530" width="160" height="52" as="geometry" />
        </mxCell>
        <mxCell id="AIKmgEOzpHdvbfiahd1B-16" style="edgeStyle=orthogonalEdgeStyle;rounded=0;orthogonalLoop=1;jettySize=auto;html=1;entryX=1;entryY=0.5;entryDx=0;entryDy=0;endArrow=block;endFill=0;" edge="1" parent="WIyWlLk6GJQsqaUBKTNV-1" source="AIKmgEOzpHdvbfiahd1B-11" target="bV7OirwBVrbGyDBHQMyq-26">
          <mxGeometry relative="1" as="geometry" />
        </mxCell>
        <mxCell id="AIKmgEOzpHdvbfiahd1B-11" value="SVGRenderer" style="swimlane;fontStyle=0;childLayout=stackLayout;horizontal=1;startSize=26;fillColor=none;horizontalStack=0;resizeParent=1;resizeParentMax=0;resizeLast=0;collapsible=1;marginBottom=0;whiteSpace=wrap;html=1;" vertex="1" parent="WIyWlLk6GJQsqaUBKTNV-1">
          <mxGeometry x="680" y="702" width="160" height="52" as="geometry" />
        </mxCell>
        <mxCell id="AIKmgEOzpHdvbfiahd1B-15" style="edgeStyle=orthogonalEdgeStyle;rounded=0;orthogonalLoop=1;jettySize=auto;html=1;endArrow=block;endFill=0;" edge="1" parent="WIyWlLk6GJQsqaUBKTNV-1" source="AIKmgEOzpHdvbfiahd1B-12" target="bV7OirwBVrbGyDBHQMyq-26">
          <mxGeometry relative="1" as="geometry" />
        </mxCell>
        <mxCell id="AIKmgEOzpHdvbfiahd1B-12" value="WebGLRenderer" style="swimlane;fontStyle=0;childLayout=stackLayout;horizontal=1;startSize=26;fillColor=none;horizontalStack=0;resizeParent=1;resizeParentMax=0;resizeLast=0;collapsible=1;marginBottom=0;whiteSpace=wrap;html=1;" vertex="1" parent="WIyWlLk6GJQsqaUBKTNV-1">
          <mxGeometry x="680" y="797" width="160" height="52" as="geometry" />
        </mxCell>
        <mxCell id="AIKmgEOzpHdvbfiahd1B-14" style="edgeStyle=orthogonalEdgeStyle;rounded=0;orthogonalLoop=1;jettySize=auto;html=1;entryX=1;entryY=0.5;entryDx=0;entryDy=0;endArrow=block;endFill=0;" edge="1" parent="WIyWlLk6GJQsqaUBKTNV-1" source="AIKmgEOzpHdvbfiahd1B-13" target="bV7OirwBVrbGyDBHQMyq-26">
          <mxGeometry relative="1" as="geometry" />
        </mxCell>
        <mxCell id="AIKmgEOzpHdvbfiahd1B-13" value="CanvasRenderer" style="swimlane;fontStyle=0;childLayout=stackLayout;horizontal=1;startSize=26;fillColor=none;horizontalStack=0;resizeParent=1;resizeParentMax=0;resizeLast=0;collapsible=1;marginBottom=0;whiteSpace=wrap;html=1;" vertex="1" parent="WIyWlLk6GJQsqaUBKTNV-1">
          <mxGeometry x="680" y="887" width="160" height="52" as="geometry" />
        </mxCell>
        <mxCell id="AIKmgEOzpHdvbfiahd1B-19" style="edgeStyle=orthogonalEdgeStyle;rounded=0;orthogonalLoop=1;jettySize=auto;html=1;endArrow=block;endFill=0;" edge="1" parent="WIyWlLk6GJQsqaUBKTNV-1" source="AIKmgEOzpHdvbfiahd1B-18" target="bV7OirwBVrbGyDBHQMyq-19">
          <mxGeometry relative="1" as="geometry" />
        </mxCell>
        <mxCell id="AIKmgEOzpHdvbfiahd1B-18" value="Group" style="swimlane;fontStyle=0;childLayout=stackLayout;horizontal=1;startSize=26;fillColor=none;horizontalStack=0;resizeParent=1;resizeParentMax=0;resizeLast=0;collapsible=1;marginBottom=0;whiteSpace=wrap;html=1;" vertex="1" parent="WIyWlLk6GJQsqaUBKTNV-1">
          <mxGeometry x="-80" y="1070" width="160" height="52" as="geometry" />
        </mxCell>
        <mxCell id="AIKmgEOzpHdvbfiahd1B-21" style="edgeStyle=orthogonalEdgeStyle;rounded=0;orthogonalLoop=1;jettySize=auto;html=1;entryX=0;entryY=0.5;entryDx=0;entryDy=0;endArrow=block;endFill=0;" edge="1" parent="WIyWlLk6GJQsqaUBKTNV-1" source="AIKmgEOzpHdvbfiahd1B-20" target="bV7OirwBVrbGyDBHQMyq-19">
          <mxGeometry relative="1" as="geometry" />
        </mxCell>
        <mxCell id="AIKmgEOzpHdvbfiahd1B-20" value="Frame" style="swimlane;fontStyle=0;childLayout=stackLayout;horizontal=1;startSize=26;fillColor=none;horizontalStack=0;resizeParent=1;resizeParentMax=0;resizeLast=0;collapsible=1;marginBottom=0;whiteSpace=wrap;html=1;" vertex="1" parent="WIyWlLk6GJQsqaUBKTNV-1">
          <mxGeometry x="-80" y="980" width="160" height="52" as="geometry" />
        </mxCell>
        <mxCell id="AIKmgEOzpHdvbfiahd1B-23" style="edgeStyle=orthogonalEdgeStyle;rounded=0;orthogonalLoop=1;jettySize=auto;html=1;entryX=0;entryY=0.5;entryDx=0;entryDy=0;endArrow=block;endFill=0;" edge="1" parent="WIyWlLk6GJQsqaUBKTNV-1" source="AIKmgEOzpHdvbfiahd1B-22" target="bV7OirwBVrbGyDBHQMyq-19">
          <mxGeometry relative="1" as="geometry" />
        </mxCell>
        <mxCell id="AIKmgEOzpHdvbfiahd1B-22" value="Text" style="swimlane;fontStyle=0;childLayout=stackLayout;horizontal=1;startSize=26;fillColor=none;horizontalStack=0;resizeParent=1;resizeParentMax=0;resizeLast=0;collapsible=1;marginBottom=0;whiteSpace=wrap;html=1;" vertex="1" parent="WIyWlLk6GJQsqaUBKTNV-1">
          <mxGeometry x="-80" y="890" width="160" height="52" as="geometry" />
        </mxCell>
        <mxCell id="igNct7924kJgtWa7V87G-0" value="Composition" style="swimlane;fontStyle=0;childLayout=stackLayout;horizontal=1;startSize=26;fillColor=none;horizontalStack=0;resizeParent=1;resizeParentMax=0;resizeLast=0;collapsible=1;marginBottom=0;whiteSpace=wrap;html=1;" vertex="1" parent="WIyWlLk6GJQsqaUBKTNV-1">
          <mxGeometry x="160" y="350" width="160" height="208" as="geometry" />
        </mxCell>
        <mxCell id="igNct7924kJgtWa7V87G-1" value="+ id: string" style="text;strokeColor=none;fillColor=none;align=left;verticalAlign=top;spacingLeft=4;spacingRight=4;overflow=hidden;rotatable=0;points=[[0,0.5],[1,0.5]];portConstraint=eastwest;whiteSpace=wrap;html=1;" vertex="1" parent="igNct7924kJgtWa7V87G-0">
          <mxGeometry y="26" width="160" height="26" as="geometry" />
        </mxCell>
        <mxCell id="igNct7924kJgtWa7V87G-2" value="+ rootNodeId: string" style="text;strokeColor=none;fillColor=none;align=left;verticalAlign=top;spacingLeft=4;spacingRight=4;overflow=hidden;rotatable=0;points=[[0,0.5],[1,0.5]];portConstraint=eastwest;whiteSpace=wrap;html=1;" vertex="1" parent="igNct7924kJgtWa7V87G-0">
          <mxGeometry y="52" width="160" height="26" as="geometry" />
        </mxCell>
        <mxCell id="igNct7924kJgtWa7V87G-5" value="+ nodes: Element[]" style="text;strokeColor=none;fillColor=none;align=left;verticalAlign=top;spacingLeft=4;spacingRight=4;overflow=hidden;rotatable=0;points=[[0,0.5],[1,0.5]];portConstraint=eastwest;whiteSpace=wrap;html=1;" vertex="1" parent="igNct7924kJgtWa7V87G-0">
          <mxGeometry y="78" width="160" height="26" as="geometry" />
        </mxCell>
        <mxCell id="igNct7924kJgtWa7V87G-14" value="+ toUpdateNodeIds: string[]" style="text;strokeColor=none;fillColor=none;align=left;verticalAlign=top;spacingLeft=4;spacingRight=4;overflow=hidden;rotatable=0;points=[[0,0.5],[1,0.5]];portConstraint=eastwest;whiteSpace=wrap;html=1;" vertex="1" parent="igNct7924kJgtWa7V87G-0">
          <mxGeometry y="104" width="160" height="26" as="geometry" />
        </mxCell>
        <mxCell id="igNct7924kJgtWa7V87G-7" value="+ width: number" style="text;strokeColor=none;fillColor=none;align=left;verticalAlign=top;spacingLeft=4;spacingRight=4;overflow=hidden;rotatable=0;points=[[0,0.5],[1,0.5]];portConstraint=eastwest;whiteSpace=wrap;html=1;" vertex="1" parent="igNct7924kJgtWa7V87G-0">
          <mxGeometry y="130" width="160" height="26" as="geometry" />
        </mxCell>
        <mxCell id="igNct7924kJgtWa7V87G-8" value="+ height: number" style="text;strokeColor=none;fillColor=none;align=left;verticalAlign=top;spacingLeft=4;spacingRight=4;overflow=hidden;rotatable=0;points=[[0,0.5],[1,0.5]];portConstraint=eastwest;whiteSpace=wrap;html=1;" vertex="1" parent="igNct7924kJgtWa7V87G-0">
          <mxGeometry y="156" width="160" height="26" as="geometry" />
        </mxCell>
        <mxCell id="igNct7924kJgtWa7V87G-10" value="+ events: Events" style="text;strokeColor=none;fillColor=none;align=left;verticalAlign=top;spacingLeft=4;spacingRight=4;overflow=hidden;rotatable=0;points=[[0,0.5],[1,0.5]];portConstraint=eastwest;whiteSpace=wrap;html=1;" vertex="1" parent="igNct7924kJgtWa7V87G-0">
          <mxGeometry y="182" width="160" height="26" as="geometry" />
        </mxCell>
        <mxCell id="igNct7924kJgtWa7V87G-4" style="edgeStyle=orthogonalEdgeStyle;rounded=0;orthogonalLoop=1;jettySize=auto;html=1;entryX=0;entryY=0.5;entryDx=0;entryDy=0;exitX=0;exitY=0.5;exitDx=0;exitDy=0;" edge="1" parent="WIyWlLk6GJQsqaUBKTNV-1" source="igNct7924kJgtWa7V87G-2" target="AIKmgEOzpHdvbfiahd1B-20">
          <mxGeometry relative="1" as="geometry">
            <Array as="points">
              <mxPoint x="-200" y="415" />
              <mxPoint x="-200" y="1000" />
              <mxPoint x="-80" y="1000" />
            </Array>
          </mxGeometry>
        </mxCell>
        <mxCell id="igNct7924kJgtWa7V87G-6" style="edgeStyle=orthogonalEdgeStyle;rounded=0;orthogonalLoop=1;jettySize=auto;html=1;exitX=0;exitY=0.5;exitDx=0;exitDy=0;" edge="1" parent="WIyWlLk6GJQsqaUBKTNV-1" source="igNct7924kJgtWa7V87G-5" target="bV7OirwBVrbGyDBHQMyq-15">
          <mxGeometry relative="1" as="geometry">
            <Array as="points">
              <mxPoint x="120" y="441" />
              <mxPoint x="120" y="640" />
              <mxPoint x="280" y="640" />
            </Array>
          </mxGeometry>
        </mxCell>
        <mxCell id="igNct7924kJgtWa7V87G-9" value="Events" style="swimlane;fontStyle=0;childLayout=stackLayout;horizontal=1;startSize=26;fillColor=none;horizontalStack=0;resizeParent=1;resizeParentMax=0;resizeLast=0;collapsible=1;marginBottom=0;whiteSpace=wrap;html=1;" vertex="1" parent="WIyWlLk6GJQsqaUBKTNV-1">
          <mxGeometry x="480" y="440" width="160" height="52" as="geometry" />
        </mxCell>
        <mxCell id="igNct7924kJgtWa7V87G-11" style="edgeStyle=orthogonalEdgeStyle;rounded=0;orthogonalLoop=1;jettySize=auto;html=1;entryX=0;entryY=0.5;entryDx=0;entryDy=0;" edge="1" parent="WIyWlLk6GJQsqaUBKTNV-1" source="igNct7924kJgtWa7V87G-10" target="igNct7924kJgtWa7V87G-9">
          <mxGeometry relative="1" as="geometry">
            <Array as="points">
              <mxPoint x="370" y="519" />
              <mxPoint x="370" y="520" />
              <mxPoint x="440" y="520" />
              <mxPoint x="440" y="466" />
            </Array>
          </mxGeometry>
        </mxCell>
        <mxCell id="igNct7924kJgtWa7V87G-13" style="edgeStyle=orthogonalEdgeStyle;rounded=0;orthogonalLoop=1;jettySize=auto;html=1;entryX=0;entryY=0.5;entryDx=0;entryDy=0;" edge="1" parent="WIyWlLk6GJQsqaUBKTNV-1" source="igNct7924kJgtWa7V87G-12" target="igNct7924kJgtWa7V87G-9">
          <mxGeometry relative="1" as="geometry">
            <Array as="points">
              <mxPoint x="440" y="797" />
              <mxPoint x="440" y="466" />
            </Array>
          </mxGeometry>
        </mxCell>
        <mxCell id="igNct7924kJgtWa7V87G-15" value="Vector" style="swimlane;fontStyle=0;childLayout=stackLayout;horizontal=1;startSize=26;fillColor=none;horizontalStack=0;resizeParent=1;resizeParentMax=0;resizeLast=0;collapsible=1;marginBottom=0;whiteSpace=wrap;html=1;" vertex="1" parent="WIyWlLk6GJQsqaUBKTNV-1">
          <mxGeometry x="160" y="1320" width="160" height="52" as="geometry" />
        </mxCell>
      </root>
    </mxGraphModel>
  </diagram>
  <diagram id="hA-ki29Tv6THq5IBPDms" name="render-cycle">
    <mxGraphModel dx="1234" dy="1214" grid="1" gridSize="10" guides="1" tooltips="1" connect="1" arrows="1" fold="1" page="1" pageScale="1" pageWidth="850" pageHeight="1100" math="0" shadow="0">
      <root>
        <mxCell id="0" />
        <mxCell id="1" parent="0" />
      </root>
    </mxGraphModel>
  </diagram>
</mxfile>
